<?xml version="1.0" encoding="utf-8"?>
<!-- Generator: Adobe Illustrator 27.5.0, SVG Export Plug-In . SVG Version: 6.00 Build 0)  -->
<svg version="1.1" id="Calque_1" xmlns="http://www.w3.org/2000/svg" xmlns:xlink="http://www.w3.org/1999/xlink" x="0px" y="0px"
	 viewBox="0 0 1591.4 416.9" style="enable-background:new 0 0 1591.4 416.9;" xml:space="preserve">
<g>
	<path d="M1210.2,372.1v25.8c-53.7,1.5-91.4,3.6-125.4,6.7c-14.5-27.4-11.9-65.5-11.9-108.9v-160c0-52.6-18.1-67.1-55.2-67.1
		c-34.1,0-73.3,19.6-103.2,35.1c-3.6,68.1-1.5,145.6,1,222.5c4.1,27.9,16,40.3,49.5,48.5V400c-16-1.5-65.5-2.6-90.3-2.6
		c-28.9,0-75.9,1-91.9,2.6v-25.3c31.5-8.8,44.9-19.6,49.5-44.9c2.6-76.4,2.6-154.3-1.5-231.7C827.2,77.4,816.4,64,791.6,64H772
		l-4.1-23.2L892.2,0c7.7,12.9,19.6,37.7,23.2,71.7c60.4-44.4,113-68.1,144.5-68.1c68.1,0,93.4,39.2,93.4,102.2v171.9
		C1153.9,337,1159.6,365.9,1210.2,372.1z"/>
	<path d="M1558.8,323.6l14.5,25.8c-34.1,28.9-86.2,58.8-149.7,58.8c-143,0-191.5-109.9-192.5-191.5c-1-119.2,87.7-212.6,195.1-212.6
		c88.8,0,149.2,72.3,154.8,169.3l-266.3,54.7c16,68.1,64.5,122.8,146.6,122.8C1491.7,349.9,1524.3,341.7,1558.8,323.6z M1308.5,177
		c0,5.2,0,10.3,1,15.5l176.5-39.2c-8.3-65.5-40.8-100.6-83.6-100.6C1324,52.6,1308,123.4,1308.5,177z"/>
	<path d="M167.7,3.6c65.5,0,103.2,23.7,125.4,65.5l-73.3,34.1c-17-34.1-39.2-54.7-78.5-54.7c-20.6,0-53.7,9.3-53.7,44.9
		c0,24.8,10.3,49.5,75.9,66.6c82.6,21.2,154.8,42.3,154.8,116.6c0,73.3-75.9,131.1-162.6,131.1c-120.3,0-145.6-64.5-155.9-96
		l73.3-34.1c10.3,23.7,40.8,84.1,114.1,84.1c21.2,0,65.5-11.9,65.5-56.3c0-43.4-60.4-58.8-108.4-73.3
		C68.6,209,23.7,187.4,23.7,121.8C23.7,60.4,81.5,3.6,167.7,3.6z"/>
	<path d="M723.6,372.1v25.8c-29.9,1-98.1,3.6-117.7,6.7c-8.3-11.9-13.4-32.5-16-53.7c-36.6,33-81,57.3-127,57.3
		c-72.3,0-102.2-52.6-102.2-91.4c0-106.3,137.8-134.7,225.6-159.5v-27.4c0-58.8-23.7-73.3-55.2-73.3c-29.9,0-80,15.5-120.8,50.1
		l-16-24.8c39.2-41.8,106.3-79,162.6-79C626.5,3.1,667.3,33,667.3,112v181.2C667.3,341.7,675.6,367,723.6,372.1z M586.3,322.1v-13.4
		V184.8c-58.8,18.6-143,45.9-143,115.1c0,26.3,24.8,55.2,63,55.2C533.6,355.1,563.1,340.7,586.3,322.1z"/>
</g>
</svg>
